<svg xmlns="http://www.w3.org/2000/svg" width="256" height="256" viewBox="0 0 100 100"><path fill="#22dd27" d="M34.79 67.88L33.49 92.19Q33.49 99.86 18.54 99.86L18.54 99.86Q15.29 99.86 14.70 96.54Q14.12 93.23 14.12 87.25L14.12 87.25Q14.12 74.64 19.19 56.05L19.19 56.05Q27.64 25.37 37.26 19.91L37.26 19.91Q38.56 19.13 40.12 19.13Q41.68 19.13 41.68 24.20Q41.68 29.27 41.16 33.17L41.16 33.17Q40.12 40.97 37.45 53.32Q34.79 65.67 34.79 67.88L34.79 67.88ZM42.33 57.22L42.33 57.22Q42.33 55.53 44.22 55.01Q46.10 54.49 48.96 54.03Q51.82 53.58 55.20 52.67Q58.58 51.76 61.44 49.29L61.44 49.29Q68.07 43.57 68.07 30.18L68.07 30.18Q68.07 21.60 62.28 17.05Q56.50 12.50 45.64 12.50Q34.79 12.50 25.30 17.05L25.30 17.05Q21.79 18.74 18.99 20.17Q16.20 21.60 13.86 21.60Q11.52 21.60 11.52 20.17L11.52 20.17Q11.52 17.96 15.81 12.89L15.81 12.89Q20.10 8.21 29.39 4.18Q38.69 0.15 48.96 0.15L48.96 0.15Q68.33 0.02 79.12 9.25L79.12 9.25Q88.48 17.31 88.48 30.11Q88.48 42.92 79.25 52.99Q70.02 63.07 56.17 63.07Q42.33 63.07 42.33 57.22Z"></path></svg>