<?xml version="1.0" standalone="no"?>
<!DOCTYPE svg PUBLIC "-//W3C//DTD SVG 20010904//EN"
 "http://www.w3.org/TR/2001/REC-SVG-20010904/DTD/svg10.dtd">
<svg version="1.0" xmlns="http://www.w3.org/2000/svg"
 width="249.000000pt" height="253.000000pt" viewBox="0 0 249.000000 253.000000"
 preserveAspectRatio="xMidYMid meet">

<g transform="translate(0.000000,253.000000) scale(0.100000,-0.100000)"
fill="#000000" stroke="none">
<path d="M0 1793 c1 -709 2 -736 18 -688 16 48 19 50 62 57 76 12 151 115 128
176 -16 44 -9 69 27 101 36 31 87 42 100 21 9 -15 81 -12 120 4 45 19 85 62
85 92 0 34 36 54 97 54 48 0 54 -2 68 -30 22 -43 56 -61 122 -67 54 -5 61 -3
97 26 42 33 52 34 116 2 32 -16 35 -22 38 -67 6 -88 86 -162 166 -151 49 7 64
-1 95 -53 26 -43 26 -58 1 -90 -26 -33 -26 -102 0 -156 16 -31 31 -46 60 -58
33 -13 40 -21 46 -52 4 -20 3 -53 -2 -72 -7 -28 -16 -38 -44 -47 -68 -23 -113
-162 -67 -212 21 -24 22 -62 1 -91 -9 -13 -13 -26 -10 -29 11 -11 36 19 47 57
10 31 9 42 -4 60 -25 37 7 91 52 88 51 -3 91 34 91 86 0 44 59 60 106 30 21
-14 31 -15 64 -5 23 7 41 19 45 31 5 16 15 20 46 20 36 0 41 -3 54 -34 17 -41
60 -61 111 -52 25 5 43 3 61 -9 21 -14 24 -22 18 -51 -8 -46 25 -104 60 -104
48 0 72 -72 35 -105 -27 -25 -27 -89 0 -112 38 -33 21 -96 -29 -106 -39 -8
-70 -60 -64 -109 4 -31 1 -39 -21 -54 -22 -14 -31 -15 -53 -5 -34 16 -90 -12
-115 -56 l-18 -33 340 0 340 0 0 1265 -1 1266 -331 -2 c-302 -1 -332 -3 -345
-19 -45 -52 -63 -70 -75 -70 -7 0 -2 7 10 16 12 8 29 28 37 45 l16 29 -901 0
-900 0 0 -737z m1938 715 c7 -7 12 -22 12 -34 0 -12 15 -37 32 -55 23 -23 26
-29 11 -21 -27 15 -53 51 -53 74 0 9 -7 24 -16 32 -8 9 -12 16 -7 16 5 0 14
-5 21 -12z m-373 -48 c27 -21 50 -30 79 -31 32 -2 35 -3 12 -6 -15 -3 -38 -2
-51 1 -24 6 -104 66 -88 66 6 0 27 -13 48 -30z m-119 -11 c-20 -16 -26 -29
-26 -61 0 -49 -32 -96 -91 -135 -33 -21 -46 -25 -83 -20 -41 6 -47 4 -70 -23
-37 -45 -40 -66 -16 -105 15 -25 20 -46 17 -77 l-4 -43 -1 45 c-2 27 -10 55
-22 70 -25 32 -25 47 1 90 31 52 46 60 95 53 80 -11 164 66 164 149 0 36 5 49
23 61 33 24 44 20 13 -4z m271 -15 c-3 -3 -12 -4 -19 -1 -8 3 -5 6 6 6 11 1
17 -2 13 -5z m538 -75 c36 -32 43 -62 24 -104 -6 -14 -7 -6 -3 26 5 42 3 48
-27 73 -26 22 -39 26 -63 21 -17 -3 -49 -8 -71 -9 -28 -2 -30 -2 -5 1 19 2 39
9 45 14 19 19 64 9 100 -22z m22 -151 c-3 -8 -6 -5 -6 6 -1 11 2 17 5 13 3 -3
4 -12 1 -19z m-489 -15 c-10 -2 -26 -2 -35 0 -10 3 -2 5 17 5 19 0 27 -2 18
-5z m-81 -9 c-3 -3 -12 -4 -19 -1 -8 3 -5 6 6 6 11 1 17 -2 13 -5z m150 0 c-3
-3 -12 -4 -19 -1 -8 3 -5 6 6 6 11 1 17 -2 13 -5z m-202 -14 c-27 -12 -43 -12
-25 0 8 5 22 9 30 9 10 0 8 -3 -5 -9z m255 0 c18 -12 2 -12 -25 0 -13 6 -15 9
-5 9 8 0 22 -4 30 -9z m495 -87 c38 -5 65 -25 65 -47 0 -6 -7 0 -16 12 -10 14
-25 22 -44 22 -31 0 -92 46 -112 84 -6 11 7 2 28 -22 30 -33 48 -44 79 -49z
m-795 73 c0 -2 -7 -7 -16 -10 -8 -3 -12 -2 -9 4 6 10 25 14 25 6z m345 -6 c3
-6 -1 -7 -9 -4 -18 7 -21 14 -7 14 6 0 13 -4 16 -10z m-30 -30 c64 -31 134
-101 165 -165 22 -43 25 -64 25 -155 0 -91 -3 -112 -25 -155 -31 -64 -101
-134 -165 -165 -43 -22 -64 -25 -155 -25 -91 0 -112 3 -155 25 -64 31 -134
101 -165 165 -32 65 -40 200 -16 272 32 94 118 182 214 218 24 10 69 14 132
12 78 -2 104 -6 145 -27z m-393 -16 c-23 -19 -56 -52 -73 -72 -17 -20 -26 -28
-21 -17 11 23 116 125 128 125 4 0 -11 -16 -34 -36z m526 -38 c28 -30 52 -58
52 -63 0 -4 -14 9 -30 29 -17 20 -50 53 -73 74 -23 20 -33 32 -22 26 11 -6 44
-35 73 -66z m-635 -91 c-3 -9 -8 -14 -10 -11 -3 3 -2 9 2 15 9 16 15 13 8 -4z
m705 -10 c-3 -3 -9 2 -12 12 -6 14 -5 15 5 6 7 -7 10 -15 7 -18z m325 -48
c-17 -17 -33 -39 -36 -47 -4 -12 -6 -11 -6 3 -1 17 60 90 68 81 3 -2 -9 -19
-26 -37z m-1307 -2 c-17 -25 -96 -70 -96 -54 0 5 17 16 39 25 21 8 44 26 51
40 7 13 15 22 18 19 3 -2 -3 -16 -12 -30z m255 4 c-5 -13 -10 -19 -10 -12 -1
15 10 45 15 40 3 -2 0 -15 -5 -28z m748 -9 c0 -10 -3 -8 -9 5 -12 27 -12 43 0
25 5 -8 9 -22 9 -30z m-762 -42 c-3 -8 -6 -5 -6 6 -1 11 2 17 5 13 3 -3 4 -12
1 -19z m770 0 c-3 -8 -6 -5 -6 6 -1 11 2 17 5 13 3 -3 4 -12 1 -19z m250 -70
c-2 -13 -4 -5 -4 17 -1 22 1 32 4 23 2 -10 2 -28 0 -40z m-1360 -20 c-2 -13
-4 -3 -4 22 0 25 2 35 4 23 2 -13 2 -33 0 -45z m330 5 c-3 -10 -5 -2 -5 17 0
19 2 27 5 18 2 -10 2 -26 0 -35z m790 0 c-3 -10 -5 -2 -5 17 0 19 2 27 5 18 2
-10 2 -26 0 -35z m289 -82 c15 -12 25 -24 22 -26 -10 -10 -68 53 -67 72 0 16
1 15 9 -3 4 -12 21 -31 36 -43z m-1306 -24 c11 -18 20 -36 20 -42 0 -5 -10 8
-23 29 -15 27 -33 43 -56 51 -19 6 -36 16 -39 23 -7 23 80 -31 98 -61z m256
-25 c-5 -5 -26 59 -25 77 0 9 7 -4 14 -29 8 -24 13 -46 11 -48z m751 66 c-3
-8 -6 -5 -6 6 -1 11 2 17 5 13 3 -3 4 -12 1 -19z m-17 -55 c-11 -17 -11 -17
-6 0 3 10 6 24 7 30 0 9 2 9 5 0 3 -7 0 -20 -6 -30z m-716 -39 c3 -8 2 -12 -4
-9 -6 3 -10 10 -10 16 0 14 7 11 14 -7z m697 -7 c-10 -9 -11 -8 -5 6 3 10 9
15 12 12 3 -3 0 -11 -7 -18z m-944 -19 c-3 -8 -6 -5 -6 6 -1 11 2 17 5 13 3
-3 4 -12 1 -19z m361 -108 c20 -16 33 -30 29 -30 -12 0 -117 102 -129 125 -6
11 6 1 26 -22 21 -23 54 -56 74 -73z m572 104 c0 -9 -103 -115 -121 -125 -9
-4 13 22 50 60 71 74 71 74 71 65z m350 -39 c-7 -8 -21 -15 -32 -15 -45 0 -87
-29 -117 -82 -17 -29 -31 -48 -31 -42 0 5 13 31 29 56 32 50 74 78 116 78 14
0 28 7 32 15 3 9 8 14 11 11 3 -3 -1 -12 -8 -21z m-1289 -48 c-26 -54 -26 -62
0 -103 20 -32 24 -34 78 -34 48 0 65 -5 98 -29 61 -44 83 -77 83 -125 0 -23 6
-48 13 -56 10 -12 9 -12 -5 -1 -12 9 -18 27 -18 54 0 75 -83 151 -163 147 -63
-4 -64 -3 -92 37 -28 42 -32 84 -11 102 8 7 18 27 22 44 4 18 9 26 11 19 3 -6
-5 -32 -16 -55z m434 -65 c-3 -3 -11 0 -18 7 -9 10 -8 11 6 5 10 -3 15 -9 12
-12z m350 8 c-3 -5 -12 -10 -18 -10 -7 0 -6 4 3 10 19 12 23 12 15 0z m-300
-20 c13 -6 15 -9 5 -9 -8 0 -22 4 -30 9 -18 12 -2 12 25 0z m255 0 c-8 -5 -22
-9 -30 -9 -10 0 -8 3 5 9 27 12 43 12 25 0z m-203 -16 c-3 -3 -12 -4 -19 -1
-8 3 -5 6 6 6 11 1 17 -2 13 -5z m150 0 c-3 -3 -12 -4 -19 -1 -8 3 -5 6 6 6
11 1 17 -2 13 -5z m-69 -11 c-10 -2 -26 -2 -35 0 -10 3 -2 5 17 5 19 0 27 -2
18 -5z m512 -94 c0 -9 -18 -33 -41 -54 -43 -39 -53 -40 -115 -14 -27 11 -39
10 -80 -6 -59 -22 -104 -65 -104 -97 0 -24 -16 -48 -33 -48 -5 0 -1 7 7 16 9
8 16 24 16 33 0 30 41 72 94 97 60 28 86 30 127 8 36 -18 57 -13 94 26 27 28
28 32 17 68 -7 22 -12 46 -12 53 1 19 30 -62 30 -82z m-665 -130 c-22 -5 -51
-21 -65 -34 -27 -26 -55 -31 -80 -15 -11 7 -5 8 18 4 27 -5 38 -2 60 18 31 29
47 37 82 36 17 0 12 -3 -15 -9z m92 -5 c-3 -3 -12 -4 -19 -1 -8 3 -5 6 6 6 11
1 17 -2 13 -5z m58 -29 c14 -13 25 -29 25 -35 0 -6 10 -15 23 -20 l22 -9 -22
0 c-15 -1 -28 9 -38 28 -8 17 -25 37 -37 45 -12 9 -17 16 -10 16 7 0 24 -11
37 -25z m118 -62 c-7 -2 -21 -2 -30 0 -10 3 -4 5 12 5 17 0 24 -2 18 -5z"/>
<path d="M1670 1988 c-69 -37 -104 -94 -108 -176 -3 -56 0 -74 20 -112 37 -69
94 -104 176 -108 56 -3 74 0 112 20 69 37 104 94 108 176 3 56 0 74 -20 112
-37 69 -94 104 -176 108 -56 3 -74 0 -112 -20z"/>
<path d="M598 1251 c-77 -25 -118 -52 -177 -116 -69 -76 -95 -146 -95 -255 0
-121 27 -185 113 -271 86 -86 150 -113 271 -113 121 0 185 27 271 113 86 86
113 150 113 271 0 121 -27 185 -113 271 -49 49 -81 72 -126 89 -82 31 -183 36
-257 11z m65 -28 c-7 -2 -21 -2 -30 0 -10 3 -4 5 12 5 17 0 24 -2 18 -5z m130
0 c-7 -2 -21 -2 -30 0 -10 3 -4 5 12 5 17 0 24 -2 18 -5z m-214 -17 c-2 -2
-15 -9 -29 -15 -24 -11 -24 -11 -6 3 16 13 49 24 35 12z m297 -12 c18 -14 18
-14 -6 -3 -31 14 -36 19 -24 19 6 0 19 -7 30 -16z m-356 -17 c0 -1 -21 -20
-47 -41 l-48 -38 44 41 c40 38 51 46 51 38z m468 -78 l24 -34 -26 30 c-14 17
-40 43 -58 59 l-33 29 34 -25 c19 -13 46 -40 59 -59z m-250 -6 c-16 -2 -40 -2
-55 0 -16 2 -3 4 27 4 30 0 43 -2 28 -4z m-340 -58 c-6 -14 -13 -23 -15 -21
-5 5 15 46 22 46 3 0 -1 -11 -7 -25z m642 -19 c0 -12 -5 -7 -19 24 -11 24 -11
24 3 6 9 -11 16 -24 16 -30z m-470 30 c0 -2 -8 -10 -17 -17 -16 -13 -17 -12
-4 4 13 16 21 21 21 13z m301 -13 c13 -16 12 -17 -3 -4 -10 7 -18 15 -18 17 0
8 8 3 21 -13z m-504 -95 c-3 -7 -5 -2 -5 12 0 14 2 19 5 13 2 -7 2 -19 0 -25z
m690 0 c-3 -7 -5 -2 -5 12 0 14 2 19 5 13 2 -7 2 -19 0 -25z m-560 -85 c-2
-16 -4 -3 -4 27 0 30 2 43 4 28 2 -16 2 -40 0 -55z m430 0 c-2 -16 -4 -3 -4
27 0 30 2 43 4 28 2 -16 2 -40 0 -55z m-560 -55 c-3 -7 -5 -2 -5 12 0 14 2 19
5 13 2 -7 2 -19 0 -25z m690 0 c-3 -7 -5 -2 -5 12 0 14 2 19 5 13 2 -7 2 -19
0 -25z m-658 -78 c11 -24 11 -24 -3 -6 -9 11 -16 24 -16 30 0 12 5 7 19 -24z
m641 22 c0 -5 -7 -17 -15 -28 -14 -18 -14 -17 -4 9 12 27 19 34 19 19z m-479
-19 c13 -16 12 -17 -3 -4 -10 7 -18 15 -18 17 0 8 8 3 21 -13z m319 13 c0 -2
-8 -10 -17 -17 -16 -13 -17 -12 -4 4 13 16 21 21 21 13z m-425 -93 c21 -27 28
-39 16 -28 -23 19 -66 75 -59 75 2 0 21 -21 43 -47z m533 15 c-13 -17 -40 -43
-58 -57 -23 -18 -16 -7 20 31 63 64 73 72 38 26z m-250 5 c-16 -2 -40 -2 -55
0 -16 2 -3 4 27 4 30 0 43 -2 28 -4z m-159 -109 c14 -12 -19 -1 -35 12 -18 14
-18 14 6 3 14 -6 27 -13 29 -15z m297 11 c-11 -8 -25 -15 -30 -15 -6 1 0 7 14
15 32 19 40 18 16 0z m-213 -32 c-7 -2 -21 -2 -30 0 -10 3 -4 5 12 5 17 0 24
-2 18 -5z m130 0 c-7 -2 -19 -2 -25 0 -7 3 -2 5 12 5 14 0 19 -2 13 -5z"/>
<path d="M0 894 l0 -145 38 35 c36 34 37 38 37 104 0 66 -2 71 -37 111 l-38
41 0 -146z"/>
<path d="M1 353 l-1 -353 871 0 871 0 -14 22 c-8 12 -30 26 -48 31 -27 7 -39
4 -62 -13 -43 -31 -98 -11 -98 37 0 37 -51 83 -93 83 -20 0 -41 7 -50 18 -19
21 -22 57 -7 67 25 16 -5 115 -35 115 -20 0 -38 37 -32 66 3 18 1 22 -11 15
-8 -5 -34 -6 -58 -3 -78 8 -160 -64 -166 -148 -3 -40 -7 -47 -43 -67 -52 -29
-73 -29 -106 3 -57 54 -174 39 -218 -29 -22 -34 -28 -37 -70 -37 -64 0 -94 18
-102 60 -9 42 -41 72 -104 96 -40 15 -52 16 -79 5 -63 -26 -72 -25 -116 15
-35 32 -41 42 -36 66 3 15 8 40 12 56 4 20 -4 42 -28 82 -28 47 -40 57 -78 69
-67 20 -73 24 -86 62 -10 28 -13 -25 -13 -318z"/>
<path d="M1619 602 c-123 -64 -155 -220 -67 -326 88 -107 248 -107 336 0 88
106 56 262 -67 326 -71 37 -131 37 -202 0z m119 11 c-10 -2 -26 -2 -35 0 -10
3 -2 5 17 5 19 0 27 -2 18 -5z m-61 -9 c-3 -3 -12 -4 -19 -1 -8 3 -5 6 6 6 11
1 17 -2 13 -5z m110 0 c-3 -3 -12 -4 -19 -1 -8 3 -5 6 6 6 11 1 17 -2 13 -5z
m-190 -35 c-28 -21 -54 -62 -68 -109 -5 -17 -8 -19 -8 -7 -2 39 69 138 98 137
3 0 -7 -10 -22 -21z m274 -16 c9 -10 19 -25 23 -33 4 -8 -1 -4 -12 9 -10 13
-30 32 -43 43 -18 15 -19 17 -4 10 11 -6 27 -18 36 -29z m-133 -20 c-10 -2
-26 -2 -35 0 -10 3 -2 5 17 5 19 0 27 -2 18 -5z m-59 -5 c-2 -2 -20 -16 -39
-33 l-35 -30 29 33 c17 17 34 32 40 32 5 0 7 -1 5 -2z m129 -29 c18 -17 32
-39 31 -48 0 -12 -3 -10 -9 5 -4 11 -22 33 -40 47 -17 15 -28 27 -23 27 5 0
24 -14 41 -31z m111 -39 c0 -10 -3 -8 -9 5 -12 27 -12 43 0 25 5 -8 9 -22 9
-30z m-322 -62 c-3 -7 -5 -2 -5 12 0 14 2 19 5 13 2 -7 2 -19 0 -25z m250 0
c-3 -7 -5 -2 -5 12 0 14 2 19 5 13 2 -7 2 -19 0 -25z m-320 -40 c-3 -8 -6 -5
-6 6 -1 11 2 17 5 13 3 -3 4 -12 1 -19z m146 -53 c20 -9 25 -14 14 -15 -22 0
-87 61 -87 82 0 7 9 -2 20 -20 11 -18 35 -39 53 -47z m158 47 c-15 -27 -60
-62 -80 -62 -9 1 -1 7 17 15 18 8 40 28 50 44 18 33 30 35 13 3z m86 6 c-3 -8
-6 -5 -6 6 -1 11 2 17 5 13 3 -3 4 -12 1 -19z m-338 -83 c14 -17 9 -14 -11 7
-21 20 -38 43 -38 50 0 7 6 4 12 -7 6 -11 22 -34 37 -50z m323 38 c-6 -10 -25
-31 -43 -48 -32 -28 -31 -28 4 13 20 23 37 47 37 54 0 6 3 9 6 6 3 -4 1 -15
-4 -25z m-212 -97 c8 -4 -1 -4 -20 -1 -19 3 -39 10 -44 15 -10 10 19 3 64 -14z
m124 14 c-5 -5 -25 -12 -44 -15 -35 -5 -35 -5 5 9 51 18 51 18 39 6z"/>
</g>
</svg>
